<svg version="1.2" xmlns="http://www.w3.org/2000/svg" viewBox="0 0 128 128" width="128" height="128">
	<title>git change me-svg</title>
	<style>
		.s0 { fill: #ffffff } 
	</style>
	<path id="Layer" fill-rule="evenodd" class="s0" d="m80.6 51h9.4v4.4l-4.4 0.4c0.9 1.1 2 2.7 2 5 0 5.6-4.3 8.8-10.6 8.8-1.6 0-3.1-0.2-4-0.4l-1.6 2.6 4.9 0.3c8.6 0.6 13.7 0.8 13.7 7.5 0 5.8-5 9-13.7 9-9.1 0-12.6-2.3-12.6-6.3 0-2.2 1-3.4 2.8-5.1-1.7-0.7-2.2-1.9-2.2-3.3 0-1.1 0.5-2.1 1.4-3 0.9-1 1.9-1.9 3.1-3-2.4-1.2-4.3-3.9-4.3-7.6 0-5.7 3.8-9.7 11.5-9.7 2.2 0 3.5 0.4 4.6 0.4zm-9.6 27.6c-0.7 0.8-1.3 1.7-1.3 2.7 0 2 2.5 2.6 6 2.6 2.9 0 6.9-0.2 6.9-2.9 0-1.7-1.9-1.8-4.3-1.9zm10-18.5c0-2.9-1.7-4.5-4.5-4.5-2.8 0-4.8 1.4-4.8 4.6 0 2.5 1.3 4.2 4.6 4.2 2.8 0 4.7-1.7 4.7-4.3zm13.7-17.9c0-2.9 1.6-4.4 4.5-4.4 2.9 0 4.5 1.5 4.5 4.4 0 2.8-1.6 4.5-4.5 4.5-2.9 0-4.5-1.7-4.5-4.5zm9.4 30.3l2.9 0.3v4.2h-15v-4.2l2.9-0.3c0.7-0.1 1.1-0.3 1.1-1v-14.8c0-0.5-0.1-0.8-0.6-0.9l-2.7-0.9 0.6-3.9h9.7v20.5c0 0.8 0.4 0.9 1.1 1zm22.6 2.3c-2.2 1.1-5.4 2-8.3 2-5.9 0-8.4-2.4-8.4-8v-13.1c0-0.3 0.4-0.7 0-0.7h-4v-4.3c4-0.5 6.7-2.7 7.2-7.7h4.8v6.6c0 0.4 0 0.4 0.4 0.4h6.6v5h-7v12.1c0 3 0.7 4.1 3.4 4.1 1.4 0 2.8-0.3 4-0.8zm-74-13.1q0.4 0.5 0.7 1.1 0.3 0.6 0.3 1.3 0 0.6-0.3 1.3-0.3 0.6-0.7 1.1l-22.8 22.7q-0.5 0.5-1.1 0.8-0.6 0.2-1.3 0.2-0.7 0-1.3-0.2-0.6-0.3-1.1-0.8l-22.9-22.9q-0.4-0.4-0.7-1-0.2-0.7-0.2-1.3 0-0.7 0.2-1.3 0.3-0.6 0.7-1.1l15.7-15.7 6 5.9q-0.3 0.6-0.3 1.2-0.1 0.6 0 1.2 0.2 0.5 0.4 1.1 0.3 0.5 0.7 0.9c0.4 0.4 0.4 0.7 1.4 0.9v14.4c-1 0.2-1 0.5-1.4 0.9-1.5 1.5-1.6 4.1 0 5.6q0.6 0.6 1.3 0.9 0.7 0.3 1.5 0.3 0.8 0 1.6-0.3 0.7-0.3 1.2-0.9c1.6-1.5 1.5-4.1 0-5.6-0.4-0.4-1.2-0.6-1.2-0.8v-14.3l5.5 5.5c-0.6 1.4-0.1 3.1 1 4.3q0.6 0.6 1.4 0.9 0.7 0.3 1.5 0.3 0.8 0 1.5-0.3 0.8-0.3 1.3-0.9c0.7-0.6 1.1-1.5 1.2-2.4 0.1-0.9-0.1-1.8-0.6-2.5-0.5-0.8-1.2-1.4-2.1-1.7-0.8-0.3-1.8-0.3-2.6 0l-5.8-5.8c0.2-0.7 0.3-1.5 0.1-2.2-0.2-0.7-0.5-1.4-1.1-2-0.5-0.5-1.2-0.9-1.9-1-0.7-0.2-1.5-0.2-2.2 0.1l-6-6 4.7-4.8q0.5-0.5 1.1-0.7 0.6-0.3 1.3-0.3 0.7 0 1.3 0.3 0.6 0.2 1.1 0.7z"/>
</svg>