<svg version="1.2" xmlns="http://www.w3.org/2000/svg" viewBox="0 0 128 128" width="128" height="128">
	<title>nextjs-original-wordmark-svg</title>
	<style>
		.s0 {fill: #ffffff } 
	</style>
	<path id="Layer" fill-rule="evenodd" class="s0" d="m30.2 45.9h24.1v1.9h-21.9v14.4h20.6v1.9h-20.6v15.8h22.2v1.9h-24.4zm26.3 0h2.6l11.4 15.8 11.5-15.8 15.8-20-26 37.5 13.4 18.4h-2.7l-12.1-16.8-12.2 16.8h-2.6l13.5-18.4zm29.7 1.9v-1.9h27.5v1.9h-12.7v34h-2.2v-34zm-86.2-1.9h2.7l38.2 56.8-15.8-20.9-22.8-33.2-0.1 33.2h-2.2zm112.7 32.6c0-0.5 0.3-0.8 0.8-0.8 0.5 0 0.8 0.3 0.8 0.8 0 0.5-0.3 0.8-0.8 0.8-0.4 0-0.8-0.3-0.8-0.8zm3-1.4h1.2c0 0.7 0.5 1.1 1.2 1.1 0.8 0 1.2-0.4 1.2-1.3v-5.5h1.2v5.5c0 1.6-0.9 2.5-2.4 2.5-1.4 0-2.4-0.9-2.4-2.2zm7.5 0c0.1 0.7 0.9 1.2 1.9 1.2 1 0 1.7-0.5 1.7-1.2q0-0.9-1.5-1.2l-1-0.2c-1.4-0.3-2-1-2-2.1 0-1.4 1.1-2.3 2.8-2.3 1.6 0 2.7 0.9 2.8 2.2h-1.2c-0.1-0.8-0.7-1.2-1.6-1.2-1 0-1.6 0.5-1.6 1.2 0 0.5 0.4 0.9 1.4 1.1l0.9 0.2c1.5 0.4 2.2 1 2.2 2.2 0 1.5-1.2 2.4-3 2.4-1.8 0-2.9-0.9-3-2.3z"/>
</svg>