<svg version="1.2" xmlns="http://www.w3.org/2000/svg" viewBox="0 0 128 128" width="128" height="128">
	<title>nodejs ggg-svg</title>
	<style>
		.s0 {fill: #ffffff } 
	</style>
	<path id="Layer" fill-rule="evenodd" class="s0" d="m114.3 80.7q-0.4 0-0.8-0.2l-2.7-1.5c-0.4-0.3-0.2-0.3 0-0.4 0.5-0.2 0.6-0.2 1.2-0.5q0.1-0.1 0.2 0l2 1.2q0 0 0.1 0 0 0 0 0 0.1 0 0.1 0 0 0 0 0l8-4.6q0 0 0 0 0.1-0.1 0.1-0.1 0 0 0 0 0-0.1 0-0.1v-9.2q0 0 0 0 0-0.1 0-0.1 0 0-0.1 0 0-0.1 0-0.1l-8-4.6q0 0 0 0 0 0-0.1 0 0 0 0 0-0.1 0-0.1 0l-7.9 4.6q-0.1 0-0.1 0.1 0 0 0 0 0 0 0 0.1-0.1 0-0.1 0v9.2q0.1 0.1 0.2 0.2l2.1 1.3c1.2 0.6 1.9-0.1 1.9-0.8v-9.1c0-0.1 0.2-0.2 0.3-0.2h1c0.1 0 0.2 0.1 0.2 0.2v9.1c0 1.5-0.8 2.4-2.3 2.4-0.5 0-0.9 0-1.9-0.5l-2-1.2q-0.2-0.1-0.4-0.2-0.1-0.2-0.3-0.4-0.1-0.2-0.1-0.4-0.1-0.2-0.1-0.4v-9.2c0-0.6 0.3-1.1 0.9-1.4l7.9-4.6q0.2-0.1 0.4-0.2 0.2 0 0.4 0 0.2 0 0.5 0 0.2 0.1 0.4 0.2l7.9 4.6c0.5 0.3 0.8 0.8 0.8 1.4v9.2q0 0.2 0 0.4-0.1 0.2-0.2 0.4-0.1 0.2-0.3 0.4-0.1 0.1-0.3 0.2l-7.9 4.6q-0.1 0.1-0.2 0.1-0.1 0.1-0.2 0.1-0.1 0-0.3 0-0.1 0-0.2 0zm2.5-6.3c-3.5 0-4.2-1.6-4.2-2.9q0 0 0-0.1 0 0 0-0.1 0.1 0 0.1 0 0.1 0 0.1 0h1q0.1 0 0.1 0 0.1 0 0.1 0 0 0.1 0 0.1 0.1 0 0.1 0.1c0.1 1 0.6 1.5 2.7 1.5 1.6 0 2.4-0.3 2.4-1.2 0-0.5-0.2-0.9-2.8-1.2-2.2-0.2-3.6-0.7-3.6-2.4 0-1.6 1.4-2.6 3.7-2.6 2.5 0 3.8 0.9 3.9 2.8q0 0 0 0.1 0 0 0 0 0 0 0 0.1 0 0 0 0-0.1 0-0.1 0 0 0 0 0 0 0.1-0.1 0.1 0 0 0 0h-1q-0.1 0-0.1 0-0.1-0.1-0.1-0.1 0 0 0 0-0.1-0.1-0.1-0.1c-0.2-1.1-0.8-1.5-2.4-1.5-1.9 0-2.1 0.7-2.1 1.1 0 0.6 0.3 0.8 2.7 1.1 2.5 0.3 3.6 0.8 3.6 2.5 0 1.7-1.4 2.7-3.9 2.7zm-23.9-3q-0.1 0-0.2 0-0.1 0-0.3 0-0.1-0.1-0.2-0.2 0-0.1 0-0.3v-2.4q0 0 0-0.1-0.1-0.1-0.1-0.1 0-0.1-0.1-0.1 0-0.1-0.1-0.1l-2.6-1.5q-0.1-0.1-0.1-0.1-0.1 0-0.2 0 0 0-0.1 0-0.1 0-0.1 0.1l-2.7 1.5c-0.1 0.1-0.2 0.2-0.2 0.4v3.1q0 0 0 0.1 0 0.1 0.1 0.1 0 0.1 0 0.1 0.1 0.1 0.1 0.1l8.5 4.9q0.1 0 0.2 0.2 0.1 0.1 0.1 0.2 0 0.2-0.1 0.3-0.1 0.1-0.2 0.2l-5.1 2.8c-0.3 0.1-0.6 0.1-0.9 0l-8.4-4.8c-0.3-0.2-0.5-0.5-0.5-0.9v-9.7q0-0.1 0-0.3 0-0.1 0.1-0.2 0.1-0.1 0.2-0.2 0.1-0.1 0.2-0.2l8.4-4.8q0.1-0.1 0.2-0.1 0.2-0.1 0.3-0.1 0.1 0 0.3 0.1 0.1 0 0.2 0.1l8.4 4.8c0.3 0.2 0.5 0.5 0.5 0.9v2.4c0 0.3-0.2 0.6-0.5 0.8zm-4-3.4q0 0 0.1 0 0 0 0 0 0 0 0.1 0 0 0 0 0l1.6 1q0.1 0 0.1 0.1v1.9q0 0.1-0.1 0.2l-1.6 0.9q0 0 0 0-0.1 0-0.1 0 0 0 0 0-0.1 0-0.1 0l-1.6-0.9q0 0 0-0.1 0 0-0.1 0 0 0 0 0 0-0.1 0-0.1v-1.9q0-0.1 0.1-0.1zm-16.1-18.1c0.3 0.2 0.5 0.6 0.5 0.9v24.2q0 0.2 0 0.3 0 0.1-0.1 0.3-0.1 0.1-0.2 0.2-0.1 0.1-0.2 0.1l-8.4 4.9c-0.3 0.2-0.7 0.2-1 0l-8.4-4.9c-0.4-0.2-0.6-0.5-0.6-0.9v-9.7q0.1-0.1 0.1-0.2 0-0.2 0.1-0.3 0.1-0.1 0.1-0.2 0.1-0.1 0.3-0.2l8.4-4.8q0.1-0.1 0.2-0.1 0.2 0 0.3 0 0.1 0 0.2 0 0.2 0 0.3 0.1l2.1 1.2q0 0 0.1 0 0 0.1 0.1 0.1 0 0 0.1-0.1 0 0 0.1 0 0 0 0-0.1 0.1 0 0.1 0 0-0.1 0-0.1 0-0.1 0-0.1v-12.9q0-0.2 0.1-0.3 0.1-0.1 0.2-0.2 0.1 0 0.2 0 0.2 0 0.3 0zm-5.8 18.6q0 0 0 0 0-0.1 0-0.1-0.1 0-0.1-0.1 0 0 0 0l-2.9-1.7q0 0-0.1 0 0 0 0 0-0.1 0-0.1 0 0 0-0.1 0l-2.9 1.7q-0.1 0.1-0.1 0.2v3.4q0 0 0 0 0 0.1 0 0.1 0.1 0 0.1 0 0 0.1 0 0.1l2.9 1.6q0.1 0.1 0.1 0.1 0 0 0.1 0 0 0 0 0 0.1 0 0.1-0.1l2.9-1.6q0.1-0.1 0.1-0.2c0 0 0-3.4 0-3.4zm-28.8-9.1q0.1-0.1 0.2-0.1 0.1 0 0.3 0 0.1 0 0.2 0 0.2 0 0.3 0.1l8.4 4.9c0.3 0.2 0.5 0.5 0.5 0.9v9.7c0 0.3-0.2 0.7-0.5 0.9l-8.4 4.8q-0.1 0.1-0.3 0.1-0.1 0.1-0.2 0.1-0.2 0-0.3-0.1-0.1 0-0.2-0.1l-8.5-4.8q-0.1-0.1-0.2-0.2-0.1-0.1-0.1-0.2-0.1-0.1-0.1-0.3-0.1-0.1-0.1-0.2v-9.8c0-0.3 0.2-0.6 0.5-0.8zm-15.3 18.7q0 0.1-0.1 0.2 0 0.1-0.1 0.2-0.2 0.1-0.3 0.1-0.1 0-0.3-0.1l-5-2.9c-0.3-0.1-0.5-0.5-0.5-0.8v-6.1c0-0.4-0.2-0.7-0.5-0.9l-2.1-1.2q-0.2-0.2-0.5-0.2-0.1 0-0.1 0-0.1 0-0.2 0.1 0 0-0.1 0-0.1 0-0.1 0.1l-2.1 1.2c-0.4 0.2-0.5 0.5-0.5 0.9v6.1c0 0.3-0.2 0.7-0.6 0.8l-5 2.9q0 0-0.1 0.1 0 0-0.1 0-0.1 0-0.1 0-0.1-0.1-0.2-0.1c-0.1-0.1-0.2-0.3-0.2-0.4v-13.1q0-0.1 0-0.2 0-0.2 0.1-0.3 0.1-0.1 0.2-0.2 0.1-0.1 0.2-0.2l8.4-4.8q0 0 0.1-0.1 0.1 0 0.1 0 0.1 0 0.1 0 0.1 0 0.2 0 0.1 0 0.2 0 0 0 0.1 0 0 0 0.1 0 0.1 0.1 0.1 0.1l8.4 4.8c0.3 0.2 0.5 0.6 0.5 0.9z"/>
</svg>