<svg version="1.2" xmlns="http://www.w3.org/2000/svg" viewBox="0 0 128 128" width="128" height="128">
	<title>tailwindlogo-svg</title>
	<defs>
		<linearGradient id="g1" x2="1" gradientUnits="userSpaceOnUse" gradientTransform="matrix(27.195,5.645,-3.792,18.269,-0.708,61.116)">
			<stop offset="0" stop-color="#ffffff"/>
			<stop offset="1" stop-color="#ffffff"/>
		</linearGradient>
	</defs>
	<style>
		.s0 { fill: url(#g1) } 
		.s1 { fill: #ffffff } 
	</style>
	<path id="Layer" class="s0" d="m13.2 56.1q-5.3 0-6.6 5.3 2-2.7 4.7-2c1 0.2 1.7 1 2.5 1.8 1.3 1.3 2.8 2.9 6.1 2.9q5.2-0.1 6.5-5.4-1.9 2.7-4.6 2c-1-0.2-1.7-1-2.5-1.8-1.3-1.3-2.8-2.8-6.1-2.8zm-6.6 7.9q-5.3 0-6.6 5.3 2-2.7 4.6-2c1 0.3 1.8 1 2.5 1.8 1.3 1.3 2.8 2.9 6.1 2.9q5.3 0 6.6-5.3-2 2.6-4.6 1.9c-1-0.2-1.7-0.9-2.5-1.7-1.3-1.4-2.8-2.9-6.1-2.9z"/>
	<path id="Layer" fill-rule="evenodd" class="s1" d="m37.4 62.8v4.4c0 1.2 0.7 1.2 2.3 1.1v1.8c-3.1 0.4-4.3-0.5-4.3-2.9v-4.4h-1.8v-2h1.8v-2.5l2-0.6v3.1h2.2v2zm11.1-2h2v9.3h-2v-1.3c-0.7 1-1.8 1.6-3.2 1.6-2.5 0-4.6-2.2-4.6-5 0-2.7 2.1-4.8 4.6-4.8 1.4 0 2.5 0.5 3.2 1.5zm-2.9 7.6c1.7 0 3-1.2 3-2.9 0-1.7-1.3-3-3-3-1.7 0-3 1.3-3 3 0.1 1.7 1.3 2.9 3 2.9zm8.3-9c-0.7 0-1.3-0.6-1.3-1.3 0-0.7 0.6-1.2 1.3-1.2 0.7 0 1.3 0.5 1.3 1.2 0 0.7-0.6 1.3-1.3 1.3zm-1 10.7v-9.3h2v9.3zm4.3 0v-13.5h2v13.5zm15.1-9.3h2.1l-2.9 9.3h-2l-1.9-6.2-2 6.2h-1.9l-3-9.3h2.2l1.8 6.5 1.9-6.5h1.9l2 6.5zm4.6-1.4c-0.7 0-1.3-0.6-1.3-1.3 0-0.7 0.6-1.3 1.3-1.3 0.7 0 1.2 0.6 1.2 1.3 0.1 0.6-0.5 1.3-1.2 1.3zm-1 10.7v-9.3h2v9.3zm9.2-9.6c2.1 0 3.6 1.4 3.6 3.8v5.8h-2v-5.5c0-1.5-0.9-2.2-2.1-2.2-1.3 0-2.4 0.8-2.4 2.7v5h-2v-9.3h2v1.2c0.6-1 1.6-1.5 2.9-1.5zm13.1-3.5h2v13.1h-2v-1.4c-0.7 1-1.8 1.6-3.2 1.6-2.6 0-4.7-2.2-4.7-4.9 0-2.8 2.1-4.9 4.7-4.9 1.4 0 2.5 0.6 3.2 1.6zm-2.9 11.3c1.6 0 2.9-1.3 2.9-3 0-1.7-1.3-3-2.9-3-1.7 0-3 1.3-3 3 0 1.7 1.3 3 3 3zm11.6 1.9c-2.8 0-4.9-2.1-4.9-4.9 0-2.8 2.1-4.9 4.9-4.9 1.9 0 3.4 1 4.2 2.4l-1.7 1c-0.4-0.8-1.4-1.4-2.5-1.4-1.6 0-2.9 1.2-2.9 2.9 0 1.7 1.3 2.9 2.9 2.9 1.1 0 2-0.5 2.5-1.4l1.7 1c-0.7 1.5-2.3 2.4-4.2 2.4zm7.6-7c0 1.7 5 0.7 5 4.1 0 1.9-1.7 2.9-3.7 2.9-1.8 0-3.2-0.8-3.8-2.2l1.8-1c0.3 0.9 1 1.4 2 1.4 0.9 0 1.6-0.3 1.6-1.1 0-1.6-5-0.7-5-4 0-1.8 1.5-2.8 3.4-2.8 1.5 0 2.8 0.6 3.5 1.9l-1.7 0.9c-0.4-0.7-1-1-1.8-1-0.7-0.1-1.3 0.3-1.3 0.9zm8.5 0c0 1.7 5 0.7 5 4.1 0 1.9-1.6 2.9-3.6 2.9-1.8 0-3.2-0.8-3.8-2.2l1.7-1c0.3 0.9 1.1 1.4 2.1 1.4 0.9 0 1.6-0.3 1.6-1.1 0-1.6-5-0.7-5-4 0-1.8 1.5-2.8 3.4-2.8 1.5 0 2.8 0.6 3.4 1.9l-1.7 0.9c-0.3-0.7-0.9-1-1.7-1-0.7-0.1-1.4 0.3-1.4 0.9z"/>
</svg>