<svg version="1.2" xmlns="http://www.w3.org/2000/svg" viewBox="0 0 128 128" width="128" height="128">
	<title>visualstudio-plain-wordmark-svg</title>
	<style>
		.s0 { fill: #ffffff } 
	</style>
	<path id="Layer" fill-rule="evenodd" class="s0" d="m17.6 53.3l5.3 2.1v17.2l-5.4 2.1-8.5-8.4-5.4 4.2-2.1-1.1v-10.8l2.1-1 5.4 4.2zm-14 7.6v6.5l3.2-3.3zm8.4 3.1l5.6 4.4v-8.7z"/>
	<g id="Layer">
		<path id="Layer" fill-rule="evenodd" class="s0" d="m40.5 57.5l-4.8 13h-1.6l-4.7-13h1.7l3.5 10.3q0.1 0.1 0.1 0.3 0.1 0.1 0.1 0.2 0 0.2 0.1 0.3 0 0.2 0 0.3 0-0.1 0.1-0.3 0-0.1 0-0.3 0.1-0.1 0.1-0.2 0-0.2 0.1-0.3l3.7-10.3zm1.9 1.4q-0.1 0-0.2 0-0.1-0.1-0.2-0.1-0.1 0-0.2-0.1 0 0-0.1-0.1-0.1-0.1-0.1-0.1-0.1-0.1-0.1-0.2-0.1-0.1-0.1-0.2 0-0.1 0-0.2 0-0.2 0.1-0.4 0-0.2 0.2-0.3 0.1-0.2 0.3-0.2 0.2-0.1 0.4-0.1 0.1 0 0.2 0 0.1 0 0.2 0.1 0.1 0 0.2 0.1 0 0 0.1 0.1 0.1 0.1 0.2 0.3 0.1 0.2 0.1 0.4 0 0.2-0.1 0.3-0.1 0.2-0.2 0.4-0.1 0-0.2 0.1 0 0.1-0.1 0.1-0.1 0-0.2 0.1-0.1 0-0.2 0zm0.7 11.6h-1.5v-9.3h1.5zm1.9-0.3v-1.6q0.3 0.2 0.6 0.4 0.3 0.2 0.6 0.3 0.4 0.1 0.7 0.1 0.4 0.1 0.7 0.1 2 0 2-1.3 0-0.1 0-0.2 0-0.1 0-0.1 0-0.1-0.1-0.2 0-0.1 0-0.1-0.1-0.1-0.1-0.2-0.1-0.1-0.2-0.1 0-0.1-0.1-0.1-0.1-0.1-0.1-0.1-0.1-0.1-0.2-0.1-0.1-0.1-0.2-0.1 0-0.1-0.1-0.1-0.1-0.1-0.2-0.1l-0.8-0.3q-0.2-0.1-0.3-0.1-0.1-0.1-0.3-0.2-0.1 0-0.2-0.1-0.2-0.1-0.3-0.1-0.1-0.1-0.2-0.1-0.1-0.1-0.2-0.2-0.1 0-0.2-0.1-0.1-0.1-0.2-0.2-0.1-0.1-0.1-0.1-0.1-0.1-0.2-0.2 0-0.1-0.1-0.2 0-0.1-0.1-0.2 0-0.1 0-0.2-0.1-0.1-0.1-0.2 0-0.2 0-0.3 0-0.1 0-0.2 0-0.2 0-0.3 0-0.2 0.1-0.3 0-0.2 0-0.3 0.1-0.1 0.2-0.3 0.1-0.1 0.1-0.2 0.1-0.1 0.2-0.2 0.1-0.1 0.2-0.2 0.1-0.1 0.3-0.2 0.1-0.1 0.2-0.2 0.2 0 0.3-0.1 0.2-0.1 0.3-0.1 0.1-0.1 0.3-0.1 0.2-0.1 0.3-0.1 0.2 0 0.4 0 0.1 0 0.3 0 0.2 0 0.3 0 0.3 0 0.6 0 0.3 0 0.5 0.1 0.3 0 0.6 0.1 0.2 0.1 0.5 0.2v1.5q-0.3-0.2-0.6-0.3-0.2-0.2-0.5-0.2-0.3-0.1-0.7-0.2-0.3 0-0.6 0-0.1 0-0.2 0-0.1 0-0.1 0-0.1 0-0.2 0-0.1 0.1-0.2 0.1-0.1 0-0.2 0 0 0.1-0.1 0.1-0.1 0-0.2 0.1 0 0-0.1 0.1 0 0-0.1 0-0.1 0.1-0.1 0.1 0 0.1-0.1 0.2 0 0-0.1 0.1 0 0 0 0.1 0 0.1-0.1 0.1 0 0.1 0 0.2 0 0 0 0.1 0 0.1 0 0.2 0 0 0 0.1 0.1 0.1 0.1 0.2 0 0 0 0.1 0.1 0.1 0.1 0.1 0.1 0.1 0.1 0.1 0.1 0.1 0.1 0.1 0.1 0.1 0.1 0.1 0.1 0.1 0.2 0.1 0 0.1 0.1 0.1 0.1 0.1 0.2 0.1 0 0 0.1 0.1l0.9 0.3q0.1 0.1 0.2 0.1 0.2 0.1 0.3 0.1 0.1 0.1 0.3 0.2 0.1 0 0.2 0.1 0.2 0 0.3 0.1 0.1 0.1 0.2 0.1 0.1 0.1 0.2 0.2 0.1 0.1 0.2 0.2 0.1 0 0.1 0.1 0.1 0.1 0.2 0.2 0 0.1 0.1 0.2 0.1 0.1 0.1 0.2 0.1 0.1 0.1 0.2 0 0.1 0.1 0.3 0 0.1 0 0.2 0 0.1 0 0.3 0 0.1 0 0.3 0 0.1-0.1 0.3 0 0.1-0.1 0.3 0 0.1-0.1 0.3-0.1 0.1-0.2 0.2-0.1 0.1-0.2 0.2-0.1 0.1-0.2 0.2-0.1 0.1-0.2 0.2-0.2 0-0.3 0.1-0.1 0.1-0.3 0.2-0.1 0-0.3 0.1-0.1 0-0.3 0.1-0.2 0-0.3 0-0.2 0.1-0.4 0.1-0.1 0-0.3 0-0.2 0-0.4 0-0.3 0-0.6 0-0.3 0-0.6-0.1-0.3-0.1-0.6-0.2-0.3-0.1-0.6-0.2zm15.3 0.3h-1.5v-1.4q-0.2 0.4-0.5 0.7-0.3 0.3-0.7 0.5-0.3 0.2-0.8 0.4-0.4 0.1-0.8 0-3.3 0-3.3-3.9v-5.5h1.4v5.3q0 2.9 2.3 2.9 0.2 0 0.5-0.1 0.2 0 0.5-0.1 0.2-0.1 0.4-0.3 0.2-0.1 0.4-0.3 0.1-0.2 0.3-0.5 0.1-0.2 0.2-0.5 0.1-0.3 0.1-0.5 0.1-0.3 0.1-0.6v-5.3h1.4zm9.1 0h-1.5v-1.5q-0.2 0.4-0.5 0.7-0.3 0.4-0.7 0.6-0.4 0.2-0.8 0.3-0.4 0.1-0.9 0.1-0.3 0-0.6 0-0.3-0.1-0.5-0.2-0.3 0-0.6-0.2-0.2-0.1-0.4-0.3-0.2-0.2-0.4-0.4-0.1-0.3-0.2-0.5-0.1-0.3-0.2-0.5 0-0.3 0-0.6 0-2.6 3-3l2.8-0.4q0-2.3-1.9-2.3-0.4 0-0.8 0-0.4 0.1-0.8 0.3-0.4 0.1-0.7 0.3-0.4 0.2-0.7 0.5v-1.5q0.3-0.2 0.7-0.4 0.4-0.2 0.8-0.3 0.4-0.1 0.8-0.1 0.4-0.1 0.8-0.1 3.3 0 3.3 3.5zm-1.5-4.7l-2.2 0.3q-0.2 0-0.4 0.1-0.2 0-0.4 0.1-0.2 0-0.4 0.1-0.2 0.1-0.4 0.2-0.1 0.1-0.2 0.3-0.1 0.1-0.2 0.3-0.1 0.2-0.1 0.3 0 0.2 0 0.4 0 0.2 0 0.3 0.1 0.2 0.1 0.3 0.1 0.2 0.2 0.3 0.1 0.1 0.2 0.2 0.1 0.1 0.3 0.2 0.1 0.1 0.3 0.1 0.1 0.1 0.3 0.1 0.2 0 0.4 0 0.2 0 0.5 0 0.2 0 0.5-0.1 0.2-0.1 0.4-0.3 0.2-0.1 0.4-0.3 0.2-0.2 0.3-0.5 0.2-0.2 0.3-0.5 0-0.2 0.1-0.5 0-0.3 0-0.5zm5.2 4.7h-1.5v-13.7h1.5z"/>
	</g>
	<g id="Layer">
		<path id="Layer" fill-rule="evenodd" class="s0" d="m77.7 69.9v-1.8q0.1 0.1 0.2 0.2 0.1 0.1 0.2 0.1 0.1 0.1 0.2 0.1 0.1 0.1 0.1 0.1 0.2 0.1 0.3 0.1 0.1 0.1 0.2 0.1 0.1 0.1 0.2 0.1 0.1 0.1 0.3 0.1 0.1 0 0.2 0.1 0.1 0 0.2 0 0.2 0.1 0.3 0.1 0.1 0 0.2 0 0.2 0.1 0.3 0.1 0.1 0 0.2 0 0.1 0 0.2 0 0.1 0 0.2 0 0.3 0 0.6 0 0.3 0 0.5-0.1 0.3 0 0.5-0.1 0.3-0.2 0.5-0.3 0.3-0.2 0.4-0.5 0.2-0.3 0.3-0.6 0-0.4 0-0.7-0.1-0.3-0.2-0.6-0.1-0.1-0.2-0.2 0-0.1-0.1-0.2-0.1-0.1-0.2-0.2-0.1 0-0.2-0.1-0.1-0.1-0.2-0.2-0.1-0.1-0.2-0.1-0.2-0.1-0.3-0.2-0.1-0.1-0.3-0.1l-1.2-0.7q-0.6-0.3-1.2-0.7-0.2 0-0.3-0.1-0.1-0.1-0.2-0.2-0.2-0.1-0.3-0.2-0.1-0.1-0.2-0.2-0.1-0.1-0.2-0.2-0.1-0.2-0.2-0.3-0.1-0.1-0.2-0.2 0-0.2-0.1-0.3-0.1-0.3-0.2-0.7-0.1-0.4 0-0.7 0-0.4 0.1-0.7 0.1-0.4 0.2-0.7 0.1-0.2 0.2-0.3 0.2-0.2 0.3-0.3 0.1-0.1 0.2-0.3 0.2-0.1 0.3-0.2 0.2-0.1 0.4-0.2 0.2-0.1 0.3-0.2 0.2 0 0.4-0.1 0.2-0.1 0.4-0.1 0.2-0.1 0.4-0.1 0.2 0 0.4-0.1 0.2 0 0.4 0 0.2 0 0.4 0 0.4 0 0.7 0 0.4 0 0.8 0.1 0.3 0 0.6 0.1 0.4 0.1 0.7 0.2v1.7q-0.3-0.2-0.7-0.3-0.3-0.2-0.7-0.3-0.4-0.1-0.7-0.1-0.4-0.1-0.8 0-0.1 0-0.3 0-0.1 0-0.2 0-0.1 0-0.3 0-0.1 0-0.2 0.1-0.1 0-0.3 0-0.1 0-0.2 0.1-0.1 0-0.2 0.1-0.1 0-0.2 0.1-0.1 0.1-0.2 0.1-0.1 0.1-0.1 0.2-0.1 0-0.2 0.1-0.1 0.1-0.1 0.2-0.1 0.1-0.1 0.2-0.1 0.1-0.1 0.2 0 0.1-0.1 0.3 0 0.1 0 0.2 0 0.1 0 0.2 0 0.1 0.1 0.2 0 0.1 0 0.3 0.1 0.1 0.1 0.2 0.1 0.1 0.1 0.1 0.1 0.1 0.2 0.2 0 0.1 0.1 0.2 0.1 0.1 0.2 0.1 0.1 0.1 0.2 0.2 0.1 0.1 0.2 0.1 0.1 0.1 0.2 0.2 0.1 0 0.2 0.1l1.3 0.6q0.6 0.3 1.3 0.7 0.1 0.1 0.3 0.2 0.1 0.1 0.2 0.2 0.2 0.1 0.3 0.2 0.1 0.1 0.3 0.3 0.1 0.1 0.2 0.2 0.1 0.1 0.2 0.2 0.1 0.2 0.1 0.3 0.1 0.1 0.2 0.3 0.1 0.1 0.1 0.3 0.1 0.1 0.1 0.3 0 0.2 0.1 0.3 0 0.2 0 0.3 0 0.3 0 0.5-0.1 0.2-0.1 0.4 0 0.2-0.1 0.4-0.1 0.2-0.2 0.4-0.1 0.1-0.2 0.3-0.1 0.1-0.2 0.3-0.2 0.1-0.3 0.2-0.1 0.1-0.3 0.2-0.2 0.2-0.3 0.2-0.2 0.1-0.4 0.2-0.2 0.1-0.4 0.2-0.2 0-0.4 0-0.2 0.1-0.4 0.1-0.2 0.1-0.4 0.1-0.2 0-0.5 0-0.2 0-0.4 0-0.1 0-0.2 0-0.1 0-0.2 0-0.1 0-0.2 0-0.1 0-0.2 0c-0.3 0-0.6 0-0.9-0.1q-0.1 0-0.2 0-0.1-0.1-0.2-0.1-0.1 0-0.3-0.1-0.1 0-0.2 0-0.1-0.1-0.2-0.1-0.1 0-0.1-0.1-0.1 0-0.2-0.1-0.1 0-0.2-0.1zm13.7 0.5q-0.2 0-0.4 0.1-0.1 0.1-0.3 0.1-0.2 0-0.4 0.1-0.1 0-0.3 0-2.5 0-2.5-2.7v-5.5h-1.5v-1.3h1.6v-2.2l1.4-0.5v2.7h2.3v1.3h-2.3v5.2q0 0.2 0 0.3 0 0.2 0.1 0.4 0 0.1 0.1 0.3 0 0.2 0.1 0.3 0.1 0.1 0.3 0.2 0.1 0.1 0.2 0.1 0.1 0.1 0.3 0.1 0.1 0 0.2 0 0.2 0 0.3 0 0.1 0 0.3-0.1 0.1 0 0.2-0.1 0.1 0 0.2-0.1zm7.7 0.1v-1.5q-0.2 0.4-0.5 0.7-0.3 0.4-0.6 0.6-0.4 0.2-0.9 0.3-0.4 0.1-0.8 0.1-3.3 0-3.3-3.9v-5.6h1.5v5.3q0 3 2.2 2.9 0.2 0.1 0.5 0 0.2 0 0.5-0.1 0.2-0.2 0.4-0.3 0.2-0.2 0.4-0.3 0.2-0.3 0.3-0.5 0.1-0.3 0.2-0.5 0.1-0.3 0.1-0.6 0.1-0.3 0.1-0.5v-5.4h1.5v9.3zm12 0h-1.4v-1.6q-0.3 0.4-0.6 0.8-0.4 0.3-0.8 0.6-0.4 0.2-0.9 0.3-0.4 0.1-0.9 0.1-0.4 0-0.8-0.1-0.4 0-0.8-0.2-0.3-0.2-0.6-0.4-0.4-0.2-0.6-0.5-0.3-0.4-0.5-0.8-0.2-0.4-0.3-0.8-0.1-0.5-0.2-0.9 0-0.5 0-0.9 0-0.5 0-1 0.1-0.5 0.2-1 0.2-0.4 0.4-0.9 0.2-0.4 0.5-0.8 0.3-0.3 0.7-0.6 0.3-0.2 0.7-0.4 0.4-0.2 0.8-0.3 0.4-0.1 0.8-0.1 0.5 0 0.9 0.1 0.4 0.1 0.7 0.3 0.4 0.2 0.7 0.5 0.3 0.3 0.5 0.6v-5.7h1.5zm-1.5-4.2v-1.3q0-0.3 0-0.6-0.1-0.2-0.2-0.5-0.1-0.2-0.2-0.4-0.1-0.3-0.3-0.4-0.2-0.2-0.4-0.4-0.2-0.1-0.5-0.2-0.2-0.1-0.5-0.2-0.2 0-0.5 0-0.3 0-0.6 0-0.3 0.1-0.6 0.2-0.3 0.2-0.5 0.3-0.3 0.2-0.4 0.5-0.2 0.3-0.4 0.6-0.2 0.3-0.3 0.7-0.1 0.3-0.1 0.7 0 0.4 0 0.7 0 0.4 0 0.7 0 0.3 0.1 0.6 0.1 0.4 0.3 0.7 0.1 0.3 0.3 0.5 0.2 0.3 0.4 0.4 0.2 0.2 0.5 0.3 0.3 0.2 0.6 0.2 0.2 0.1 0.5 0.1 0.3 0 0.6-0.1 0.3 0 0.5-0.2 0.3-0.1 0.5-0.2 0.2-0.2 0.4-0.4 0.2-0.3 0.4-0.5 0.1-0.3 0.2-0.6 0.1-0.3 0.2-0.6 0-0.3 0-0.6zm5-7.4q-0.1 0-0.2 0-0.1 0-0.2-0.1-0.1 0-0.2 0 0-0.1-0.1-0.2-0.1 0-0.1-0.1-0.1-0.1-0.1-0.2-0.1-0.1-0.1-0.2 0-0.1 0-0.1 0-0.2 0.1-0.4 0.1-0.2 0.2-0.4 0.1-0.1 0.3-0.2 0.2 0 0.4 0 0.1 0 0.2 0 0.1 0 0.2 0 0.1 0.1 0.2 0.1 0 0.1 0.1 0.1 0.1 0.2 0.2 0.3 0.1 0.2 0.1 0.4 0 0.2-0.1 0.4-0.1 0.2-0.2 0.3-0.1 0.1-0.2 0.1 0 0.1-0.1 0.1-0.1 0.1-0.2 0.1-0.1 0-0.2 0zm0.7 11.6h-1.5v-9.2h1.5zm6.6 0.2q-0.5 0-0.9-0.1-0.5-0.1-0.9-0.2-0.4-0.2-0.8-0.4-0.4-0.3-0.7-0.6-0.3-0.4-0.6-0.8-0.2-0.4-0.3-0.8-0.2-0.5-0.3-0.9 0-0.5 0-0.9 0-0.5 0-1 0.1-0.5 0.3-1 0.1-0.5 0.4-0.9 0.2-0.4 0.6-0.8 0.3-0.3 0.7-0.6 0.4-0.2 0.8-0.4 0.5-0.2 0.9-0.2 0.5-0.1 1-0.1 0.4 0 0.9 0 0.4 0.1 0.8 0.3 0.5 0.1 0.8 0.4 0.4 0.2 0.7 0.6 0.3 0.3 0.6 0.8 0.2 0.4 0.3 0.8 0.2 0.5 0.2 1 0.1 0.4 0.1 0.9 0 0.5-0.1 1 0 0.4-0.2 0.9-0.2 0.4-0.4 0.9-0.3 0.4-0.6 0.7-0.3 0.4-0.7 0.6-0.4 0.3-0.8 0.5-0.4 0.1-0.9 0.2-0.5 0.1-0.9 0.1zm0.1-8.4q0-0.1 0-0.1 0 0 0 0.1zm-0.6 0q-0.4 0.1-0.6 0.2-0.3 0.1-0.6 0.3-0.3 0.2-0.5 0.5-0.2 0.2-0.3 0.6-0.2 0.3-0.3 0.6-0.1 0.4-0.2 0.7 0 0.4 0 0.7 0 0.4 0 0.7 0.1 0.4 0.2 0.7 0.1 0.3 0.3 0.6 0.1 0.3 0.4 0.6 0.2 0.3 0.4 0.4 0.3 0.2 0.6 0.3 0.3 0.2 0.6 0.2 0.3 0.1 0.6 0.1 0.3 0 0.6-0.1 0.3 0 0.6-0.1 0.3-0.2 0.6-0.3 0.2-0.2 0.4-0.5 0.2-0.2 0.4-0.6 0.1-0.3 0.2-0.6 0.1-0.3 0.2-0.7 0-0.3 0-0.7 0-0.4 0-0.7-0.1-0.4-0.2-0.7-0.1-0.3-0.2-0.7-0.2-0.3-0.4-0.6-0.2-0.2-0.4-0.4-0.3-0.2-0.6-0.3-0.3-0.2-0.6-0.2-0.3-0.1-0.6-0.1-0.3 0-0.6 0.1z"/>
	</g>
</svg>